<svg xmlns="http://www.w3.org/2000/svg" xmlns:xlink="http://www.w3.org/1999/xlink" version="1.1" id="레이어_1" x="0px" y="0px" width="32px" height="32px" viewBox="0 0 32 32" style="enable-background:new 0 0 32 32;" xml:space="preserve">
<path style="fill:#9C9D9E;" d="M30.742,9.771c-0.807-1.905-1.961-3.615-3.43-5.084c-1.469-1.469-3.18-2.623-5.084-3.428  C20.256,0.424,18.16,0,16,0c-2.159,0-4.255,0.424-6.229,1.258C7.866,2.063,6.156,3.218,4.687,4.687  c-1.469,1.469-2.623,3.18-3.428,5.084C0.424,11.745,0,13.841,0,15.999c0,2.161,0.424,4.255,1.258,6.229  c0.364,0.859,0.8,1.68,1.302,2.457l-2.376,7.131l7.131-2.377c0.778,0.502,1.598,0.939,2.458,1.303C11.746,31.576,13.841,32,16,32  c2.16,0,4.255-0.424,6.228-1.258c1.904-0.807,3.615-1.959,5.084-3.428c1.469-1.471,2.623-3.18,3.43-5.086  C31.574,20.254,32,18.16,32,15.999C32,13.841,31.574,11.745,30.742,9.771 M15.7,25.309c-1.126,0-1.996-0.891-1.996-2.08  c0-1.213,0.87-2.104,1.996-2.104c1.127,0,1.996,0.891,1.996,2.104C17.695,24.418,16.827,25.309,15.7,25.309 M17.031,19.215h-2.716  c-0.557-3.917,3.531-5.441,3.531-7.867c0-1.266-0.805-2.135-2.189-2.135c-1.083,0-1.975,0.547-2.758,1.384L11.17,9.02  c1.197-1.352,2.845-2.329,4.862-2.329c2.799,0,4.795,1.535,4.795,4.442C20.828,14.545,16.655,15.759,17.031,19.215"/>
</svg>