<svg xmlns="http://www.w3.org/2000/svg" xmlns:xlink="http://www.w3.org/1999/xlink" version="1.1" x="0px" y="0px" width="22px" height="22px" viewBox="0 0 35 35" style="enable-background:new 0 0 35 35;" xml:space="preserve">
<path style="fill:#fff;" d="M17.499,0.106C7.836,0.106,0,7.941,0,17.606c0,8.734,6.4,15.974,14.766,17.287V22.666h-4.444v-5.06  h4.444v-3.854c0-4.387,2.612-6.81,6.609-6.81c1.916,0,3.917,0.342,3.917,0.342v4.307h-2.206c-2.174,0-2.852,1.349-2.852,2.733v3.282  h4.853l-0.774,5.06h-4.078v12.228C28.6,33.58,35,26.341,35,17.606C35,7.941,27.164,0.106,17.499,0.106"/>
</svg>