<svg xmlns="http://www.w3.org/2000/svg" xmlns:xlink="http://www.w3.org/1999/xlink" version="1.1" id="레이어_1" x="0px" y="0px" width="22px" height="22px" viewBox="0 0 35 35" style="enable-background:new 0 0 35 35;" xml:space="preserve"><g><path style="fill:rgba(255,255,255, .8);" d="M26.762,0.718H8.238c-4.101,0-7.425,3.343-7.425,7.468v18.629c0,4.125,3.324,7.468,7.425,7.468   h18.524c4.1,0,7.426-3.343,7.426-7.468V8.186C34.188,4.061,30.861,0.718,26.762,0.718 M17.395,26.016   c-0.761,0-1.506-0.057-2.229-0.164c-1.33,0.905-4.412,3.001-4.618,3.14c-0.264,0.175-0.665,0.183-0.503-0.471   c0.133-0.525,0.791-2.984,1.041-3.921c-3.418-1.672-5.694-4.662-5.694-8.073c0-5.241,5.375-9.49,12.004-9.49   c6.628,0,12.003,4.249,12.003,9.49S24.023,26.016,17.395,26.016"/><path style="fill:rgba(255,255,255, .8);" d="M9.021,14.779h1.235c0,0,0.008,3.394,0.001,4.184c0.001,0.577,1.285,0.585,1.284,0.01l0.005-4.149   c0,0,0.414,0.003,1.229,0.003c0.769,0,0.77-1.207,0.002-1.208c-0.865,0-3.758-0.024-3.758-0.024   C8.293,13.595,8.296,14.779,9.021,14.779"/><path style="fill:rgba(255,255,255, .8);" d="M14.164,13.989c-0.304,0.67-1.401,3.832-1.767,4.67c-0.264,0.607,0.873,1.102,1.137,0.495   l0.247-0.865h2.262c0,0-0.078,0.036,0.223,0.828c0.243,0.642,1.417,0.197,1.173-0.444c-0.347-0.917-1.548-4.217-1.767-4.684   c-0.102-0.216-0.463-0.37-0.814-0.37C14.567,13.619,14.284,13.725,14.164,13.989 M14.934,14.998l0.687,2.154h-1.432L14.934,14.998z   "/><path style="fill:rgba(255,255,255, .8);" d="M20.846,18.172c-0.58,0-1.641-0.006-1.641-0.006s0.004-3.203,0.004-3.982   c-0.002-0.376-0.336-0.563-0.67-0.563s-0.67,0.189-0.668,0.567c0.002,1.074,0.006,4.538,0.006,4.538s-0.1,0.688,0.49,0.688   s1.9-0.007,2.482-0.007C21.428,19.407,21.426,18.172,20.846,18.172"/><path style="fill:rgba(255,255,255, .8);" d="M24.146,16.248c0,0,1.174-1.271,1.637-1.729c0.27-0.269-0.566-1.11-0.836-0.842   c-0.262,0.259-2.102,2.101-2.102,2.101s0.016-1.155,0-1.796c-0.006-0.241-0.305-0.359-0.609-0.359c-0.326,0-0.66,0.135-0.652,0.396   c0.014,0.471-0.016,4.731-0.016,5.046c0,0.499,1.27,0.498,1.27,0c0-0.578,0-1.677,0-1.677l0.373-0.298l1.629,2.222   c0.328,0.436,1.365-0.35,1.035-0.784L24.146,16.248z"/></g></svg>