<svg xmlns="http://www.w3.org/2000/svg" xmlns:xlink="http://www.w3.org/1999/xlink" version="1.1" id="레이어_1" x="0px" y="0px" width="26px" height="26px" viewBox="0 0 35 35" style="enable-background:new 0 0 35 35;" xml:space="preserve"><path style="fill:rgba(255,255,255, .8)" d="M34.27,9.076c-0.404-1.505-1.59-2.691-3.096-3.094C28.443,5.25,17.5,5.25,17.5,5.25  s-10.945,0-13.674,0.731C2.32,6.384,1.134,7.57,0.731,9.076C0,11.805,0,17.501,0,17.501s0,5.695,0.731,8.423  c0.403,1.506,1.588,2.692,3.094,3.094C6.554,29.75,17.5,29.75,17.5,29.75s10.944,0,13.674-0.731  c1.506-0.402,2.691-1.588,3.096-3.094C35,23.196,35,17.501,35,17.501S35,11.805,34.27,9.076 M14,22.75v-10.5l9.094,5.251L14,22.75z"/></svg>